<svg xmlns="http://www.w3.org/2000/svg" viewBox="0 0 1200 680" role="img" aria-labelledby="t d"><title id="t">Tool Design</title><desc id="d">Tools need contracts, validation, bounded effects and useful recovery.</desc><rect width="1200" height="680" rx="28" fill="#0b1020"/><defs><marker id="a" markerWidth="8" markerHeight="8" refX="7" refY="4" orient="auto"><path d="M0 0L8 4L0 8Z" fill="#6ea8ff"/></marker><linearGradient id="g" x1="0" x2="1"><stop stop-color="#244cff"/><stop offset=".55" stop-color="#8b5cf6"/><stop offset="1" stop-color="#22c55e"/></linearGradient></defs><text x="60" y="72" fill="#f8fafc" font-family="Inter,Arial,sans-serif" font-size="32" font-weight="800">Tool Design</text><text x="60" y="105" fill="#94a3b8" font-family="Inter,Arial,sans-serif" font-size="15">Tools need contracts, validation, bounded effects and useful recovery.</text><path d="M280 296H320" fill="none" stroke="#6ea8ff" stroke-width="3" marker-end="url(#a)" opacity=".9"/><path d="M540 296L580 206" fill="none" stroke="#6ea8ff" stroke-width="3" marker-end="url(#a)" opacity=".9"/><path d="M540 296L580 386" fill="none" stroke="#6ea8ff" stroke-width="3" marker-end="url(#a)" opacity=".9"/><path d="M800 206L840 286" fill="none" stroke="#6ea8ff" stroke-width="3" marker-end="url(#a)" opacity=".9"/><path d="M800 386L840 306" fill="none" stroke="#6ea8ff" stroke-width="3" marker-end="url(#a)" opacity=".9"/><g><rect x="70" y="250" width="210" height="92" rx="18" fill="#151d35" stroke="#31507d" stroke-width="2"/><text x="88" y="284" fill="#f8fafc" font-family="Inter,Arial,sans-serif" font-size="17" font-weight="800">Agent intent</text><text x="88" y="310" fill="#9fb0c8" font-family="Inter,Arial,sans-serif" font-size="12">requested action</text></g><g><rect x="320" y="250" width="220" height="92" rx="18" fill="#151d35" stroke="#244cff" stroke-width="2"/><text x="338" y="284" fill="#f8fafc" font-family="Inter,Arial,sans-serif" font-size="17" font-weight="800">Tool contract</text><text x="338" y="310" fill="#9fb0c8" font-family="Inter,Arial,sans-serif" font-size="12">schema + auth</text></g><g><rect x="580" y="160" width="220" height="92" rx="18" fill="#151d35" stroke="#8b5cf6" stroke-width="2"/><text x="598" y="194" fill="#f8fafc" font-family="Inter,Arial,sans-serif" font-size="17" font-weight="800">Validate</text><text x="598" y="220" fill="#9fb0c8" font-family="Inter,Arial,sans-serif" font-size="12">input + permission</text></g><g><rect x="580" y="340" width="220" height="92" rx="18" fill="#151d35" stroke="#22c55e" stroke-width="2"/><text x="598" y="374" fill="#f8fafc" font-family="Inter,Arial,sans-serif" font-size="17" font-weight="800">Execute</text><text x="598" y="400" fill="#9fb0c8" font-family="Inter,Arial,sans-serif" font-size="12">bounded side effect</text></g><g><rect x="840" y="250" width="240" height="92" rx="18" fill="#151d35" stroke="#31507d" stroke-width="2"/><text x="858" y="284" fill="#f8fafc" font-family="Inter,Arial,sans-serif" font-size="17" font-weight="800">Result / Error</text><text x="858" y="310" fill="#9fb0c8" font-family="Inter,Arial,sans-serif" font-size="12">typed outcome</text></g></svg>